<svg xmlns="http://www.w3.org/2000/svg" xmlns:xlink="http://www.w3.org/1999/xlink" width="800" zoomAndPan="magnify" viewBox="0 0 600 599.999999" height="800" preserveAspectRatio="xMidYMid meet" version="1.0"><defs><clipPath id="2613705be5"><path d="M 300 0 C 134.316406 0 0 134.316406 0 300 C 0 465.683594 134.316406 600 300 600 C 465.683594 600 600 465.683594 600 300 C 600 134.316406 465.683594 0 300 0 Z M 300 0 " clip-rule="nonzero"/></clipPath><clipPath id="8636ce9b56"><path d="M 0 0 L 600 0 L 600 600 L 0 600 Z M 0 0 " clip-rule="nonzero"/></clipPath><clipPath id="ef4ed7c1ae"><path d="M 300 0 C 134.316406 0 0 134.316406 0 300 C 0 465.683594 134.316406 600 300 600 C 465.683594 600 600 465.683594 600 300 C 600 134.316406 465.683594 0 300 0 Z M 300 0 " clip-rule="nonzero"/></clipPath><clipPath id="920dffbcea"><rect x="0" width="600" y="0" height="600"/></clipPath></defs><g clip-path="url(#2613705be5)"><g transform="matrix(1, 0, 0, 1, 0, -0.000000000000034788)"><g clip-path="url(#920dffbcea)"><g clip-path="url(#8636ce9b56)"><g clip-path="url(#ef4ed7c1ae)"><rect x="-132" width="864" fill="#366ae8" height="863.999999" y="-132" fill-opacity="1"/></g></g></g></g><path stroke-linecap="butt" transform="matrix(0.75, 0, 0, 0.75, 0.0000003, 0.00002)" fill="none" stroke-linejoin="miter" d="M 400.000017 -0.0000266667 C 179.088549 -0.0000266667 -0.0000004 179.088523 -0.0000004 399.99999 C -0.0000004 620.911458 179.088549 800.000007 400.000017 800.000007 C 620.911484 800.000007 800.000034 620.911458 800.000034 399.99999 C 800.000034 179.088523 620.911484 -0.0000266667 400.000017 -0.0000266667 Z M 400.000017 -0.0000266667 " stroke="#ffffff" stroke-width="8" stroke-opacity="1" stroke-miterlimit="4"/></g><path fill="#ffffff" d="M 348.695312 400.175781 C 345.257812 400.308594 348.199219 399.769531 344.988281 400.085938 C 327.59375 401.816406 324.511719 402.535156 320.378906 401.949219 C 325.457031 400.085938 358.945312 393.769531 381.304688 391.992188 C 385.730469 391.632812 394.878906 391.207031 396.046875 395.5 C 402.585938 419.636719 149.21875 459.234375 170.679688 440.671875 C 176.613281 435.546875 254.441406 418.445312 262.417969 419.972656 C 198.433594 439.054688 186.253906 438.246094 195.984375 439.167969 C 201.625 439.707031 282.398438 432.289062 349.078125 412.984375 C 351.910156 412.175781 390.675781 400.871094 389.441406 397.320312 C 388.632812 395.027344 358.628906 398.78125 352.449219 399.296875 C 351.210938 399.386719 349.839844 399.453125 348.695312 400.175781 Z M 348.695312 400.175781 " fill-opacity="1" fill-rule="nonzero"/><path fill="#ffffff" d="M 482.976562 303.984375 C 485.269531 303.761719 484.214844 304.546875 486.414062 303.804688 C 488.28125 303.175781 490.144531 303.335938 492.347656 303.492188 C 491.023438 304.234375 438.816406 318.953125 434.433594 322.257812 C 418.882812 325.785156 359.527344 351.023438 338.042969 370.484375 C 337.660156 370.84375 336.71875 370.933594 337.03125 371.65625 C 338.179688 374.304688 356.761719 367.519531 359.933594 367.8125 C 359.796875 368.105469 359.773438 368.304688 359.683594 368.328125 C 355.257812 369.96875 333.796875 378.734375 331.816406 374.261719 C 328.941406 367.746094 350.921875 354.890625 357.101562 351.203125 C 413.152344 317.785156 480.886719 305.019531 482.976562 303.984375 Z M 482.976562 303.984375 " fill-opacity="1" fill-rule="nonzero"/><path fill="#ffffff" d="M 483.023438 362.753906 C 471.875 365.113281 468.660156 363.921875 436.636719 368.464844 C 422.972656 370.394531 416.746094 371.207031 416.433594 368.464844 C 415.734375 362.238281 440.410156 357.675781 452.929688 358.058594 C 454.953125 358.125 456.816406 358.238281 457.894531 360.371094 C 458.433594 361.453125 459.695312 361.136719 460.683594 361.113281 C 468.167969 361.003906 475.671875 361.339844 483.023438 362.753906 Z M 483.023438 362.753906 " fill-opacity="1" fill-rule="nonzero"/><path fill="#ffffff" d="M 112.988281 343.945312 C 121.484375 343.96875 121.710938 356.6875 112.855469 356.621094 C 104.269531 356.574219 104.539062 343.921875 112.988281 343.945312 Z M 112.988281 343.945312 " fill-opacity="1" fill-rule="nonzero"/><path fill="#ffffff" d="M 114.070312 450.089844 C 117.484375 447.796875 128.003906 443.277344 131.484375 443.234375 C 134.136719 443.1875 135.554688 445.570312 132.945312 447.59375 C 130.722656 449.300781 121.371094 452.941406 118.742188 453.910156 C 113.214844 455.976562 111.035156 452.132812 114.070312 450.089844 Z M 114.070312 450.089844 " fill-opacity="1" fill-rule="nonzero"/><path fill="#ffffff" d="M 171.960938 244.519531 C 171.917969 236.925781 183.355469 236.765625 183.445312 244.363281 C 183.535156 251.597656 172.007812 252.027344 171.960938 244.519531 Z M 171.960938 244.519531 " fill-opacity="1" fill-rule="nonzero"/><path fill="#ffffff" d="M 423.105469 317 C 421.824219 317.132812 421.171875 316.367188 420.589844 315.492188 C 420.003906 314.570312 420.453125 313.808594 421.082031 313.175781 C 423.714844 310.527344 426.859375 308.660156 430.476562 307.605469 C 432.925781 306.886719 434.320312 309.875 433.039062 311.265625 C 430.34375 314.1875 426.835938 315.808594 423.105469 317 Z M 423.105469 317 " fill-opacity="1" fill-rule="nonzero"/><path fill="#ffffff" d="M 438.433594 414.152344 C 440.972656 414.019531 442.007812 416.78125 440.480469 418.175781 C 427.554688 429.863281 423.644531 418.378906 438.433594 414.152344 Z M 438.433594 414.152344 " fill-opacity="1" fill-rule="nonzero"/><path fill="#ffffff" d="M 314.46875 462.921875 C 314.21875 462.898438 310.601562 462.964844 309.929688 459.753906 C 308.847656 454.671875 317.320312 453.4375 319.367188 457.210938 C 320.0625 458.492188 319.996094 459.863281 319.320312 461.144531 C 318.601562 462.492188 317.300781 462.964844 314.46875 462.921875 Z M 314.46875 462.921875 " fill-opacity="1" fill-rule="nonzero"/><path fill="#ffffff" d="M 221.964844 284.703125 C 224.347656 284.660156 226.617188 286.726562 226.640625 288.929688 C 226.664062 291.039062 224.484375 293.085938 222.191406 293.109375 C 216.480469 293.152344 216.660156 284.792969 221.964844 284.703125 Z M 221.964844 284.703125 " fill-opacity="1" fill-rule="nonzero"/><path fill="#ffffff" d="M 278.871094 231.550781 C 275.925781 231.550781 274.644531 230.316406 274.667969 227.550781 C 274.6875 225.011719 276.105469 223.6875 278.78125 223.664062 C 284.488281 223.621094 284.824219 231.574219 278.871094 231.550781 Z M 278.871094 231.550781 " fill-opacity="1" fill-rule="nonzero"/><path fill="#ffffff" d="M 138.609375 464 C 144.070312 464.066406 143.9375 472.203125 138.339844 472.089844 C 133.484375 472 132.789062 463.933594 138.609375 464 Z M 138.609375 464 " fill-opacity="1" fill-rule="nonzero"/><path fill="#ffffff" d="M 264.777344 386.058594 C 266.914062 385.386719 267.945312 383.410156 269.542969 382.082031 C 275.273438 377.273438 280.824219 372.285156 286.464844 367.363281 C 286.734375 367.136719 286.960938 366.824219 287.5 366.933594 C 287.746094 367.96875 286.847656 368.417969 286.285156 368.957031 C 270.824219 383.722656 275.679688 379.25 259.765625 392.308594 C 257.429688 394.21875 260.058594 392.644531 256.644531 395.074219 L 255.992188 393.902344 Z M 264.777344 386.058594 " fill-opacity="1" fill-rule="nonzero"/><path fill="#ffffff" d="M 124.699219 415.230469 C 119.507812 415.1875 119.550781 407.65625 124.742188 407.792969 C 126.765625 407.835938 128.519531 409.636719 128.5625 411.726562 C 128.609375 413.589844 126.8125 415.253906 124.699219 415.230469 Z M 124.699219 415.230469 " fill-opacity="1" fill-rule="nonzero"/><path fill="#ffffff" d="M 212.367188 464.222656 C 212.324219 459.460938 218.976562 459.484375 219.042969 463.976562 C 219.109375 468.382812 212.4375 468.605469 212.367188 464.222656 Z M 212.367188 464.222656 " fill-opacity="1" fill-rule="nonzero"/><path fill="#ffffff" d="M 410.183594 356.238281 C 410.230469 357.921875 408.722656 359.519531 406.925781 359.652344 C 405.398438 359.789062 403.21875 357.675781 403.261719 356.101562 C 403.285156 354.710938 405.082031 353.023438 406.609375 352.933594 C 408.410156 352.84375 410.140625 354.441406 410.183594 356.238281 Z M 410.183594 356.238281 " fill-opacity="1" fill-rule="nonzero"/><path fill="#ffffff" d="M 262.238281 386.195312 C 259.992188 385.878906 257.992188 387.8125 283.050781 366.214844 C 283.429688 365.878906 283.859375 365.652344 284.757812 365.96875 C 274.128906 377.207031 264.824219 383.679688 262.238281 386.195312 Z M 262.238281 386.195312 " fill-opacity="1" fill-rule="nonzero"/><path fill="#ffffff" d="M 401.171875 431.683594 C 395.800781 431.703125 398.09375 425.230469 401.148438 425.210938 C 404.453125 425.164062 406.273438 431.636719 401.171875 431.683594 Z M 401.171875 431.683594 " fill-opacity="1" fill-rule="nonzero"/><path fill="#ffffff" d="M 184.972656 298.414062 C 186.570312 298.390625 188.074219 299.648438 188.121094 301.085938 C 188.164062 302.121094 186.140625 304.007812 184.972656 303.851562 C 181.265625 303.355469 181.289062 298.457031 184.972656 298.414062 Z M 184.972656 298.414062 " fill-opacity="1" fill-rule="nonzero"/><path fill="#ffffff" d="M 180.679688 476.089844 C 180.703125 477.371094 179.019531 479.148438 177.757812 478.96875 C 174.566406 478.496094 174.007812 474.089844 177.691406 473.304688 C 178.996094 473.035156 180.679688 474.742188 180.679688 476.089844 Z M 180.679688 476.089844 " fill-opacity="1" fill-rule="nonzero"/><path fill="#ffffff" d="M 161.0625 383.160156 C 161.039062 385.386719 155.554688 386.351562 155.511719 382.667969 C 155.441406 378.824219 161.105469 378.417969 161.0625 383.160156 Z M 161.0625 383.160156 " fill-opacity="1" fill-rule="nonzero"/><path fill="#ffffff" d="M 190.613281 340.617188 C 193.492188 340.371094 194.121094 345.023438 190.433594 345.808594 C 189.355469 346.035156 187.558594 344.214844 187.492188 343.066406 C 187.421875 341.785156 188.839844 340.617188 190.613281 340.617188 Z M 190.613281 340.617188 " fill-opacity="1" fill-rule="nonzero"/><path fill="#ffffff" d="M 222.257812 340.664062 C 222.28125 340.640625 302.398438 267.375 322.671875 246.945312 C 388.945312 180.15625 415.710938 165.433594 419.128906 159.300781 C 410.699219 163.074219 372.40625 190.089844 367.101562 197.03125 C 366.382812 197.480469 364.585938 197.976562 364.179688 199.84375 C 363.976562 200.042969 362.316406 200.023438 360.089844 203.527344 C 359.886719 203.730469 359.863281 203.234375 358.921875 204.132812 C 354.472656 208.425781 344.582031 217.664062 344.785156 218.699219 C 344.449219 219.148438 339.617188 222.339844 336.917969 228.269531 C 329.300781 245.058594 313.140625 228.609375 322.714844 221.394531 C 333.210938 213.507812 358.585938 181.257812 397.214844 158.109375 C 432.523438 136.960938 429.871094 140.015625 434.296875 136.242188 C 439.421875 131.859375 444.523438 132.871094 447.332031 136.894531 C 449.199219 139.589844 448.480469 137.589844 464.929688 128.398438 C 470.730469 125.160156 477.179688 120.847656 481.851562 125.859375 C 488.933594 133.476562 495.71875 139.386719 492.707031 145.34375 C 483.203125 164.152344 460.570312 185.054688 447.132812 198.628906 C 431.757812 214.179688 373.6875 270.859375 359.078125 282.457031 C 339.097656 298.324219 342.628906 294.613281 248.058594 382.488281 C 245.96875 384.441406 243.71875 384.417969 241.765625 382.328125 C 240.507812 380.980469 239.515625 381.160156 238.257812 382.148438 C 219.832031 396.691406 223.515625 403.546875 217.378906 404.445312 C 195.0625 407.703125 166.546875 423.996094 159.601562 431.03125 C 158.972656 431.660156 158.003906 432.3125 157.082031 431.433594 C 156.070312 430.46875 156.746094 429.523438 157.421875 428.785156 C 169.824219 415.050781 186.90625 377.339844 188.683594 372.554688 C 191.222656 365.632812 201.066406 366.375 213.558594 355.160156 C 214.59375 354.238281 215.269531 353.382812 214.480469 352.011719 C 212.773438 348.957031 215.246094 347.359375 222.257812 340.664062 Z M 338.359375 246.519531 C 338.425781 245.867188 338.179688 245.53125 337.480469 245.667969 L 335.90625 244.160156 C 335.816406 243.105469 334.988281 243.195312 334.335938 243.328125 C 333.636719 243.484375 333.257812 243.980469 333.636719 244.746094 C 334.109375 245.9375 334.289062 246.945312 335.773438 246.925781 C 335.886719 247.039062 335.726562 248.609375 338.289062 249.621094 C 338.335938 249.667969 338.246094 250.769531 339.59375 250.925781 C 339.683594 251.015625 339.839844 252.566406 341.730469 253.128906 C 341.820312 253.21875 341.546875 254.003906 342.582031 254.027344 C 344.15625 257.351562 343.886719 255.488281 348.382812 260.429688 C 348.941406 262.386719 349.863281 262.140625 351.078125 263.375 C 351.054688 264.433594 351.683594 264.972656 352.605469 265.261719 L 353.640625 266.433594 C 353.527344 267.667969 354.742188 267.714844 354.851562 267.871094 C 355.324219 269.265625 356.492188 270.164062 357.4375 271.175781 C 358.179688 271.960938 358.742188 273.984375 359.953125 273.105469 C 361.234375 272.183594 359.484375 270.996094 358.875 270.074219 C 357.617188 268.140625 356.785156 265.847656 354.671875 264.566406 C 354.652344 264.453125 354.582031 264.363281 354.515625 264.253906 C 354.71875 262.925781 353.460938 262.925781 353.347656 262.769531 C 352.898438 260.792969 351.820312 260.746094 350.605469 259.464844 C 350.5625 258.429688 349.863281 257.960938 349.03125 257.601562 L 348.402344 256.902344 C 348.019531 255.601562 347.234375 254.679688 345.929688 254.183594 L 342.671875 250.878906 C 342.785156 250.207031 342.515625 249.890625 341.820312 250.003906 L 341.367188 249.578125 C 341.550781 248.453125 340.46875 248.675781 340.492188 248.699219 C 340.582031 248.046875 340.335938 247.710938 339.636719 247.824219 L 339.210938 247.375 C 339.4375 246.207031 338.359375 246.585938 338.359375 246.519531 Z M 344.808594 233.890625 C 343.863281 233.890625 343.910156 234.765625 343.929688 234.765625 C 342.558594 234.8125 342.605469 236.09375 342.628906 236.070312 C 341.660156 236.046875 341.75 236.96875 341.773438 236.945312 C 340.449219 237.015625 340.425781 238.25 340.449219 238.226562 C 339.839844 238.183594 339.546875 238.472656 339.59375 239.058594 C 339.503906 239.148438 338.199219 239.082031 338.378906 240.476562 C 338.246094 241.195312 338.851562 241.417969 339.234375 241.800781 C 348.605469 252.046875 349.167969 253.441406 352.671875 256.160156 C 352.921875 256.410156 353.820312 259.21875 356.742188 260.8125 C 358.222656 263.351562 361.054688 266.117188 362.765625 268.476562 C 364.292969 270.566406 365.054688 269.085938 370.449219 264.320312 C 371.167969 263.691406 371.597656 262.859375 371.148438 262.027344 C 368.449219 257.171875 363.730469 252.160156 363.4375 252.003906 C 363.054688 250.859375 362.449219 249.890625 361.234375 249.441406 C 360.539062 246.699219 355.121094 241.824219 352.964844 240.003906 C 352.898438 239.933594 352.875 240.207031 352.449219 239.933594 C 351.144531 237.375 348.921875 236.609375 346.449219 233.664062 C 345.167969 232.136719 345.054688 233.574219 344.808594 233.890625 Z M 339.59375 210.988281 C 339.546875 211.054688 338.335938 211.054688 338.359375 212.359375 L 337.976562 212.855469 C 337.324219 212.765625 336.988281 213.011719 337.121094 213.707031 L 333.03125 217.910156 C 331.90625 218.179688 331.1875 219.078125 331.097656 220.023438 C 331.007812 221.078125 332.355469 221.214844 333.078125 221.753906 C 334.738281 223.035156 335.886719 222.628906 337.078125 220.921875 C 356.695312 192.921875 417.128906 153.253906 432.34375 147.523438 C 434.027344 146.894531 441.535156 145.164062 439.175781 141.320312 C 437.78125 139.027344 435.558594 139.679688 433.265625 141.074219 C 418.523438 150.0625 392.382812 164.085938 376.089844 177.4375 C 370.878906 179.90625 367.617188 184.199219 367.640625 184.175781 C 363.730469 186.199219 362.066406 189.097656 362.089844 189.097656 C 359.101562 190.378906 358 192.875 358.023438 192.851562 C 354.492188 194.359375 354.5625 196.246094 354.269531 196.5625 C 353.550781 196.3125 353.820312 196.089844 345.640625 204.222656 C 345.167969 204.695312 344.402344 205.035156 344.582031 205.933594 L 344.132812 206.382812 C 343.257812 206.359375 342.808594 206.765625 342.828125 207.664062 L 340.46875 210.113281 C 339.839844 210.089844 339.546875 210.359375 339.59375 210.988281 Z M 274.015625 301.851562 C 274.039062 301.851562 272.867188 301.648438 272.644531 303.085938 C 272.597656 303.132812 271.8125 302.996094 271.746094 303.941406 L 271.296875 304.367188 C 270.6875 304.34375 270.398438 304.613281 270.417969 305.222656 C 266.9375 308.570312 266.597656 307.246094 263.40625 311.671875 C 263.183594 311.828125 263.203125 311.378906 260.957031 313.425781 C 237.335938 334.886719 237.425781 333.988281 238.6875 335.222656 C 239.382812 335.921875 240.167969 335.425781 240.796875 334.84375 C 240.820312 334.820312 309.570312 274.792969 332.3125 250.835938 C 333.167969 249.9375 333.078125 249.105469 332.042969 248.273438 C 331.074219 247.488281 330.335938 247.710938 329.59375 248.496094 C 314.109375 264.679688 302.308594 273.894531 294.152344 283.289062 C 293.523438 283.0625 293.230469 283.535156 292.871094 283.871094 C 287.363281 288.972656 278.691406 296.792969 274.914062 301.0625 C 274.398438 301.0625 274.039062 301.265625 274.015625 301.851562 Z M 394.296875 216.585938 C 398.609375 214.359375 398.09375 213.460938 411.601562 200.402344 C 412.339844 200.605469 412.859375 200.449219 412.902344 199.574219 C 414.25 198 416.230469 197.03125 417.195312 195.101562 L 417.152344 195.121094 C 417.824219 195.210938 418.050781 194.71875 418.296875 194.269531 C 420.65625 193.4375 421.667969 191.28125 423.535156 189.550781 C 421.714844 189.078125 420.972656 190.222656 420.140625 190.828125 C 357.347656 236.699219 364.988281 232.339844 357.640625 237.621094 C 356.3125 238.585938 356.808594 239.171875 357.976562 239.710938 L 359.664062 241.574219 C 360.945312 245.667969 362.898438 246.136719 365.886719 243.238281 C 378.96875 230.585938 379.238281 231.441406 378.992188 230.453125 L 379.035156 230.429688 C 379.664062 230.722656 379.933594 230.203125 380.292969 229.890625 C 394.722656 217.058594 394.566406 217.460938 394.316406 216.628906 Z M 477.988281 131.070312 C 477.109375 129.117188 475.425781 129.609375 473.875 129.789062 C 473.3125 129.859375 472.617188 129.8125 472.480469 130.554688 C 472.371094 131.140625 472.570312 131.632812 473.042969 132.082031 C 477.042969 135.859375 480.191406 140.375 484.03125 144.285156 C 484.664062 144.914062 484.796875 146.511719 486.214844 145.882812 C 487.425781 145.367188 487 143.996094 487.203125 142.984375 C 487.3125 142.464844 487.203125 141.769531 486.933594 141.296875 C 482.664062 134.171875 477.964844 131.050781 477.988281 131.070312 Z M 187.46875 385.296875 C 186.457031 387.140625 185.0625 387.632812 184.210938 391.925781 C 183.535156 393.5 183.828125 391.835938 182.75 394.105469 C 179.308594 401.273438 178.027344 403.925781 174.1875 409.949219 C 173.128906 411.613281 173.648438 412.308594 175.535156 412.21875 C 178.589844 412.0625 176.164062 417.140625 180.074219 414.601562 C 189.242188 408.601562 199.066406 403.996094 209.71875 401.183594 C 212.4375 400.464844 210.210938 400.355469 212.773438 399.996094 C 219.785156 401.386719 215.46875 391.386719 233.675781 376.417969 C 236.191406 374.351562 234.796875 374.035156 222.121094 360.035156 C 221.402344 359.226562 220.660156 358.980469 219.492188 359.675781 C 206.90625 367.226562 197.019531 369.789062 194.839844 372.328125 C 190.523438 376.238281 188.1875 383.296875 188.1875 383.476562 C 187.421875 383.902344 186.792969 384.351562 187.46875 385.296875 Z M 243.25 344.910156 C 243.023438 344.6875 243.472656 344.460938 243.023438 344.035156 C 236.101562 337.496094 236.078125 337.136719 235.382812 337.652344 C 235.226562 337.628906 234.234375 337.40625 233.964844 337.675781 C 222.617188 347.96875 221.851562 347.808594 223.921875 349.699219 C 236.144531 360.957031 240.167969 368.394531 242.933594 369.8125 L 243.742188 370.734375 C 243.878906 372.058594 245.316406 372.507812 245.742188 373.675781 C 246.957031 376.957031 248.484375 373.96875 258.644531 364.824219 C 259.699219 363.855469 259.5625 363.136719 258.574219 362.394531 C 257.496094 361.585938 256.890625 360.53125 256.328125 359.339844 C 254.933594 356.371094 255.183594 358.011719 252.710938 355.339844 C 252.371094 354.304688 251.136719 354.101562 250.6875 353.160156 C 250.238281 351.316406 246.328125 347.675781 245.71875 347.046875 C 245 346.257812 244.664062 344.933594 243.25 344.910156 Z M 350.335938 231.890625 C 351.28125 232.003906 351.167969 231.867188 356.808594 226.628906 C 431.917969 156.9375 455.289062 147.386719 452.660156 144.21875 C 451.851562 143.253906 450.75 143.679688 449.761719 144.421875 C 407.507812 176.109375 385.148438 194.921875 349.640625 228.8125 C 348.246094 230.160156 348.515625 231.800781 350.335938 231.890625 Z M 312.871094 285.21875 C 310.917969 285.398438 310.984375 286.410156 299.703125 295.671875 C 283.230469 309.199219 265.160156 323.199219 246.933594 340.28125 C 244.550781 342.507812 246.597656 343.113281 251.292969 348.460938 C 252.417969 349.742188 253.226562 349.449219 254.28125 348.328125 C 312.535156 286.972656 312.671875 287.308594 312.871094 285.21875 Z M 468.144531 132.757812 C 466.078125 133.410156 464.347656 134.757812 462.527344 135.882812 C 459.019531 138.015625 459.042969 138.0625 461.695312 141.027344 L 475.988281 157.480469 C 477.605469 159.34375 478.03125 157.523438 482.820312 151.027344 C 483.292969 150.378906 483.382812 149.90625 482.863281 149.140625 C 479.019531 143.410156 470.167969 132.554688 468.144531 132.757812 Z M 243.988281 377.09375 C 239.136719 368.84375 229.269531 358.753906 221.222656 351.71875 C 220.75 351.316406 220.121094 351.046875 219.652344 351.496094 C 219.089844 352.058594 219.761719 352.574219 220.101562 352.957031 C 228.753906 362.6875 233.472656 367.160156 237.675781 372.621094 C 238.976562 374.304688 240.6875 375.722656 242.238281 377.226562 C 242.574219 377.542969 243.070312 377.859375 243.609375 377.65625 C 243.789062 377.585938 243.855469 377.296875 243.988281 377.09375 Z M 455.378906 143.027344 C 473.199219 162.511719 471.851562 163.410156 473.46875 162.378906 C 474.660156 161.613281 473.941406 160.535156 473.3125 159.589844 C 468.816406 152.757812 462.953125 147.074219 457.445312 141.09375 C 456.253906 139.792969 452.882812 140.308594 455.378906 143.027344 Z M 331.75 227.238281 C 331.796875 224.71875 330.695312 223.664062 328.042969 223.597656 C 325.59375 223.550781 324.042969 224.992188 324.019531 227.328125 C 323.972656 231.933594 331.660156 233.261719 331.75 227.238281 Z M 331.75 227.238281 " fill-opacity="1" fill-rule="nonzero"/><path fill="#ffffff" d="M 436.703125 386.960938 C 434.65625 389.679688 418.589844 399.792969 414.160156 402.308594 C 359.527344 433.367188 293.925781 446.582031 279.050781 447.773438 C 269.65625 448.515625 301.566406 441.097656 345.886719 426.648438 C 396.96875 409.972656 432.117188 387.273438 436.703125 386.960938 Z M 436.703125 386.960938 " fill-opacity="1" fill-rule="nonzero"/><path fill="#ffffff" d="M 437.039062 386.308594 C 437.714844 387.003906 436.679688 387.003906 436.792969 386.578125 C 436.816406 386.464844 436.949219 386.398438 437.039062 386.308594 Z M 437.039062 386.308594 " fill-opacity="1" fill-rule="nonzero"/><path fill="#ffffff" d="M 372.226562 328.886719 C 369.753906 331.964844 316.109375 364.644531 300.175781 380.621094 C 298.015625 382.800781 298.195312 383.5 301.007812 384.53125 C 303.007812 385.25 305.074219 385.09375 307.050781 384.78125 C 313.816406 383.679688 307.1875 385.363281 339.75 379.992188 C 340.359375 379.878906 341.257812 379.542969 341.457031 380.328125 C 341.683594 381.226562 340.828125 381.429688 340.066406 381.609375 C 335.773438 382.621094 307.792969 392.261719 296.78125 387.925781 C 293.8125 386.757812 293.253906 382.554688 295.542969 379.386719 C 305.589844 365.273438 370.335938 326.617188 372.226562 328.886719 Z M 372.226562 328.886719 " fill-opacity="1" fill-rule="nonzero"/><path fill="#ffffff" d="M 371.84375 328.414062 C 372.316406 327.742188 372.921875 327.671875 373.707031 327.808594 C 373.507812 328.730469 372.878906 328.820312 372.226562 328.886719 Z M 371.84375 328.414062 " fill-opacity="1" fill-rule="nonzero"/><path fill="#ffffff" d="M 260.394531 386.800781 C 260.195312 386.980469 260.285156 386.980469 260.082031 386.800781 C 260.261719 386.621094 260.195312 386.601562 260.394531 386.800781 Z M 260.394531 386.800781 " fill-opacity="1" fill-rule="nonzero"/><path fill="#ffffff" d="M 247.539062 237.082031 C 250.484375 237.261719 250.484375 241.664062 247.429688 241.867188 C 246.125 241.957031 244.460938 240.453125 244.6875 239.375 C 244.933594 238.023438 245.765625 237.105469 247.539062 237.082031 Z M 247.539062 237.082031 " fill-opacity="1" fill-rule="nonzero"/><path fill="#ffffff" d="M 284.128906 403.386719 C 281.835938 403.457031 281.542969 398.21875 284.847656 398.398438 C 287.972656 398.554688 289.164062 403.253906 284.128906 403.386719 Z M 284.128906 403.386719 " fill-opacity="1" fill-rule="nonzero"/><path fill="#ffffff" d="M 211.558594 400.195312 C 210.324219 402.128906 199.289062 402.085938 180.074219 414.625 C 176.164062 417.164062 178.589844 412.085938 175.535156 412.242188 C 171.152344 412.46875 175.199219 409.476562 179.738281 400.285156 C 183.398438 392.847656 183.128906 392.890625 183.894531 392.667969 C 184.277344 394.082031 181.714844 396.261719 182.390625 398.894531 C 188.390625 389.230469 192.050781 376.195312 197.0625 373.699219 C 203.132812 370.6875 208.953125 367.25 215.109375 364.375 C 217.15625 363.40625 219.582031 362.777344 221.042969 360.753906 C 219.515625 359.25 216.300781 363.96875 201.199219 369.765625 C 199.175781 370.554688 197.46875 372.105469 195.175781 372.171875 C 196.839844 369.8125 206.367188 367.585938 219.515625 359.699219 C 220.683594 359 221.402344 359.25 222.144531 360.058594 C 235.046875 374.304688 236.191406 374.394531 233.695312 376.441406 C 215.46875 391.410156 219.785156 401.410156 212.796875 400.015625 C 213.042969 398.714844 215.15625 400.332031 216.773438 396.375 C 223.023438 381.207031 234.910156 375.789062 233.046875 374.261719 C 232.347656 373.699219 232.394531 374.464844 232.167969 374.644531 C 231.203125 375.476562 230.484375 376.667969 228.953125 376.644531 C 229.113281 376.800781 228.574219 376.507812 229.742188 375.207031 C 232.125 372.53125 232.011719 372.105469 229.742188 369.476562 C 227.113281 366.417969 226.730469 369.722656 216.617188 378.308594 C 215.359375 379.386719 214.839844 380.328125 214.886719 381.925781 C 214.976562 385.273438 213 387.027344 209.605469 386.328125 C 206.726562 385.746094 205.425781 387.902344 203.46875 389.566406 C 182.03125 407.65625 182.792969 409.679688 178.570312 412.578125 C 177.757812 413.117188 178.277344 414.265625 179.625 413.476562 C 186.75 409.320312 193.917969 405.207031 201.851562 402.757812 C 205.066406 401.792969 208.121094 400.265625 211.558594 400.195312 Z M 207.066406 379.679688 C 205.785156 383.949219 208.03125 385.386719 211.066406 385.160156 C 213.019531 385.003906 214.03125 384.039062 214.121094 382.015625 C 214.324219 378.015625 209.359375 378.105469 207.066406 379.679688 C 207.628906 376.667969 211.988281 378.914062 213.425781 377.65625 C 217.492188 374.082031 221.5625 370.507812 225.628906 366.933594 C 227.605469 365.183594 222.84375 362.394531 221.042969 363.363281 C 197.558594 376.035156 197.535156 374.667969 188.457031 397.003906 C 187.851562 398.488281 186.546875 399.722656 186.457031 401.792969 C 192.457031 396.894531 199.355469 390.644531 204.839844 385.183594 C 205.671875 384.375 206.03125 383.746094 205.71875 382.597656 C 205.378906 381.363281 205.492188 380.148438 207.066406 379.679688 Z M 207.066406 379.679688 " fill-opacity="1" fill-rule="nonzero"/><path fill="#ffffff" d="M 356.964844 261.105469 C 359.753906 261.464844 361.054688 259.285156 362.785156 257.800781 C 364.226562 256.566406 365.4375 255.308594 364.496094 253.238281 C 367.058594 255.914062 369.328125 258.8125 371.125 262.027344 C 371.597656 262.859375 371.167969 263.691406 370.429688 264.320312 C 365.078125 269.039062 364.269531 270.566406 362.742188 268.476562 C 360.921875 265.960938 358.585938 263.824219 356.964844 261.105469 Z M 356.964844 261.105469 " fill-opacity="1" fill-rule="nonzero"/><path fill="#ffffff" d="M 352.449219 239.957031 C 349.730469 241.082031 347.660156 243.125 345.460938 244.925781 C 344.359375 245.824219 344.875 246.746094 345.730469 247.667969 C 353.234375 255.691406 352.898438 255.601562 352.652344 256.160156 C 349.101562 253.398438 348.742188 252.183594 339.210938 241.800781 C 340.628906 242.296875 341.59375 241.6875 342.449219 240.609375 C 344.019531 238.609375 346.582031 237.417969 347.347656 234.742188 C 349.101562 236.429688 351.300781 237.6875 352.449219 239.957031 Z M 352.449219 239.957031 " fill-opacity="1" fill-rule="nonzero"/><path fill="#ffffff" d="M 207.066406 379.679688 C 209.359375 378.082031 214.300781 377.992188 214.144531 382.015625 C 214.054688 384.039062 213.042969 385.003906 211.089844 385.160156 C 208.054688 385.386719 205.785156 383.96875 207.066406 379.679688 Z M 207.066406 379.679688 " fill-opacity="1" fill-rule="nonzero"/></svg>